# xmcd CD database file
#
# Track frame offsets:
#	150
#	12414
#	25881
#	37603
#	51305
#	63065
#	76567
#	88871
#	102340
#	114915
#	127457
#	139397
#	151077
#	162804
#	175166
#	187143
#	199785
#	211794
#
# Disc length: 2985 seconds
#
# Revision: 0
# Processed by: cddbd v1.5.2PL0 Copyright (c) Steve Scherf et al.
# Submitted via: CDex 1.70beta2
#
DISCID=e90ba712
DTITLE=Big Bill Broonzy - Original Blues Sessions CD7
DYEAR=2007
DGENRE=Blues
TTITLE0=Trouble and lying woman
TTITLE1=Living on easy street
TTITLE2=Good time tonight
TTITLE3=Flat foot Susie with her flat yes yes
TTITLE4=Done got wise (Concert)
TTITLE5=Hell ain't but a mile and a quater
TTITLE6=Don't you lay it on me
TTITLE7=Louise, Louise (Concert)
TTITLE8=Rider, rider blues
TTITLE9=Trucking little women no 2
TTITLE10=Mary blues
TTITLE11=Baby, i done got wise
TTITLE12=Just got to hold you tight
TTITLE13=Preachin' the blues
TTITLE14=Fightin' little roaster
TTITLE15=Baby, don't you remember
TTITLE16=Just a dream
TTITLE17=You can't sell 'em in here
EXTD=YEAR: 2007
EXTT0=
EXTT1=
EXTT2=
EXTT3=
EXTT4=
EXTT5=
EXTT6=
EXTT7=
EXTT8=
EXTT9=
EXTT10=
EXTT11=
EXTT12=
EXTT13=
EXTT14=
EXTT15=
EXTT16=
EXTT17=
PLAYORDER=
